Exo-ExtraLightItalic.ufo
<glyph name="at" format="1">
  <advance width="905"/>
  <unicode hex="0040"/>
  <note>
    GF Latin Plus glyph
  </note>
  <outline>
    <contour>
      <point x="510" y="510" type="curve" smooth="yes"/>
      <point x="565" y="510"/>
      <point x="611" y="502"/>
      <point x="672" y="470" type="curve"/>
      <point x="615" y="89" type="line"/>
      <point x="546" y="37"/>
      <point x="470" y="30"/>
      <point x="409" y="30" type="curve" smooth="yes"/>
      <point x="344" y="30"/>
      <point x="282" y="59"/>
      <point x="282" y="182" type="curve" smooth="yes"/>
      <point x="282" y="388"/>
      <point x="387" y="510"/>
    </contour>
    <contour>
      <point x="62" y="14" type="line" smooth="yes"/>
      <point x="60" y="1"/>
      <point x="59" y="-12"/>
      <point x="59" y="-24" type="curve" smooth="yes"/>
      <point x="59" y="-114"/>
      <point x="116" y="-181"/>
      <point x="217" y="-181" type="curve" smooth="yes"/>
      <point x="314" y="-181" type="line" smooth="yes"/>
      <point x="440" y="-181"/>
      <point x="554" y="-177"/>
      <point x="604" y="-169" type="curve"/>
      <point x="608" y="-146" type="line"/>
      <point x="223" y="-146" type="line" smooth="yes"/>
      <point x="148" y="-146"/>
      <point x="96" y="-102"/>
      <point x="96" y="-22" type="curve" smooth="yes"/>
      <point x="96" y="-12"/>
      <point x="97" y="0"/>
      <point x="99" y="12" type="curve" smooth="yes"/>
      <point x="180" y="517" type="line" smooth="yes"/>
      <point x="192" y="597"/>
      <point x="236" y="668"/>
      <point x="354" y="668" type="curve" smooth="yes"/>
      <point x="742" y="668" type="line" smooth="yes"/>
      <point x="812" y="668"/>
      <point x="862" y="643"/>
      <point x="862" y="560" type="curve" smooth="yes"/>
      <point x="862" y="547"/>
      <point x="860" y="533"/>
      <point x="858" y="517" type="curve" smooth="yes"/>
      <point x="806" y="172" type="line" smooth="yes"/>
      <point x="787" y="44"/>
      <point x="690" y="32"/>
      <point x="643" y="32" type="curve"/>
      <point x="709" y="480" type="line"/>
      <point x="663" y="524"/>
      <point x="588" y="544"/>
      <point x="509" y="544" type="curve" smooth="yes"/>
      <point x="366" y="544"/>
      <point x="246" y="409"/>
      <point x="246" y="177" type="curve" smooth="yes"/>
      <point x="246" y="37"/>
      <point x="317" y="-6"/>
      <point x="405" y="-6" type="curve" smooth="yes"/>
      <point x="470" y="-6"/>
      <point x="579" y="23"/>
      <point x="613" y="62" type="curve"/>
      <point x="614" y="0" type="line"/>
      <point x="652" y="0" type="line" smooth="yes"/>
      <point x="792" y="0"/>
      <point x="835" y="125"/>
      <point x="842" y="170" type="curve" smooth="yes"/>
      <point x="894" y="515" type="line" smooth="yes"/>
      <point x="896" y="531"/>
      <point x="897" y="547"/>
      <point x="897" y="562" type="curve" smooth="yes"/>
      <point x="897" y="650"/>
      <point x="848" y="703"/>
      <point x="748" y="703" type="curve" smooth="yes"/>
      <point x="357" y="703" type="line" smooth="yes"/>
      <point x="217" y="703"/>
      <point x="160" y="622"/>
      <point x="144" y="521" type="curve" smooth="yes"/>
    </contour>
  </outline>
</glyph>
<glyph name="F" format="1">
  <advance width="547"/>
  <unicode hex="0046"/>
  <note>
    GF Latin Plus glyph
  </note>
  <outline>
    <contour>
      <point x="78" y="0" type="line"/>
      <point x="118" y="0" type="line"/>
      <point x="173" y="342" type="line"/>
      <point x="521" y="344" type="line"/>
      <point x="526" y="374" type="line"/>
      <point x="178" y="380" type="line"/>
      <point x="212" y="593" type="line" smooth="yes"/>
      <point x="224" y="667"/>
      <point x="260" y="695"/>
      <point x="323" y="695" type="curve" smooth="yes"/>
      <point x="618" y="695" type="line"/>
      <point x="623" y="726" type="line"/>
      <point x="614" y="727"/>
      <point x="337" y="733"/>
      <point x="325" y="733" type="curve" smooth="yes"/>
      <point x="255" y="734"/>
      <point x="190" y="711"/>
      <point x="172" y="594" type="curve" smooth="yes"/>
    </contour>
    <contour>
      <point x="421" y="810" type="move" name="top"/>
    </contour>
  </outline>
</glyph>
<glyph name="K" format="1">
  <advance width="572"/>
  <unicode hex="004B"/>
  <note>
    GF Latin Plus glyph
  </note>
  <outline>
    <contour>
      <point x="78" y="0" type="line"/>
      <point x="118" y="0" type="line"/>
      <point x="173" y="349" type="line"/>
      <point x="324" y="349" type="line"/>
      <point x="497" y="0" type="line"/>
      <point x="540" y="0" type="line"/>
      <point x="359" y="367" type="line"/>
      <point x="645" y="733" type="line"/>
      <point x="600" y="733" type="line"/>
      <point x="327" y="386" type="line"/>
      <point x="180" y="386" type="line"/>
      <point x="235" y="733" type="line"/>
      <point x="194" y="733" type="line"/>
    </contour>
    <contour>
      <point x="405" y="810" type="move" name="top"/>
    </contour>
    <contour>
      <point x="253" y="-150" type="move" name="bottom"/>
    </contour>
  </outline>
</glyph>
<glyph name="h" format="1">
  <advance width="568"/>
  <unicode hex="0068"/>
  <note>
    GF Latin Plus glyph
  </note>
  <outline>
    <contour>
      <point x="76" y="0" type="line"/>
      <point x="117" y="0" type="line"/>
      <point x="188" y="441" type="line"/>
      <point x="262" y="482"/>
      <point x="317" y="503"/>
      <point x="399" y="503" type="curve" smooth="yes"/>
      <point x="470" y="503"/>
      <point x="510" y="476"/>
      <point x="510" y="401" type="curve" smooth="yes"/>
      <point x="510" y="388"/>
      <point x="510" y="374"/>
      <point x="507" y="358" type="curve" smooth="yes"/>
      <point x="450" y="0" type="line"/>
      <point x="491" y="0" type="line"/>
      <point x="550" y="367" type="line" smooth="yes"/>
      <point x="552" y="383"/>
      <point x="553" y="398"/>
      <point x="553" y="412" type="curve" smooth="yes"/>
      <point x="553" y="494"/>
      <point x="507" y="540"/>
      <point x="417" y="540" type="curve" smooth="yes"/>
      <point x="332" y="540"/>
      <point x="254" y="511"/>
      <point x="192" y="471" type="curve"/>
      <point x="238" y="763" type="line"/>
      <point x="197" y="763" type="line"/>
    </contour>
    <contour>
      <point x="318" y="850" type="move" name="top"/>
    </contour>
    <contour>
      <point x="258" y="-150" type="move" name="bottom"/>
    </contour>
  </outline>
</glyph>
<glyph name="p" format="1">
  <advance width="562"/>
  <unicode hex="0070"/>
  <note>
    GF Latin Plus glyph
  </note>
  <outline>
    <contour>
      <point x="126" y="61" type="curve"/>
      <point x="196" y="501" type="line"/>
      <point x="381" y="502" type="line" smooth="yes"/>
      <point x="473" y="503"/>
      <point x="515" y="452"/>
      <point x="515" y="355" type="curve" smooth="yes"/>
      <point x="515" y="325"/>
      <point x="509" y="292"/>
      <point x="505" y="269" type="curve" smooth="yes"/>
      <point x="480" y="115"/>
      <point x="430" y="30"/>
      <point x="296" y="30" type="curve" smooth="yes"/>
      <point x="227" y="30"/>
      <point x="196" y="38"/>
    </contour>
    <contour>
      <point x="38" y="-237" type="line"/>
      <point x="79" y="-237" type="line"/>
      <point x="122" y="31" type="line"/>
      <point x="179" y="4"/>
      <point x="230" y="-6"/>
      <point x="297" y="-6" type="curve" smooth="yes"/>
      <point x="454" y="-6"/>
      <point x="520" y="99"/>
      <point x="545" y="259" type="curve" smooth="yes"/>
      <point x="550" y="288"/>
      <point x="555" y="325"/>
      <point x="555" y="360" type="curve" smooth="yes"/>
      <point x="555" y="482"/>
      <point x="495" y="538"/>
      <point x="388" y="538" type="curve" smooth="yes"/>
      <point x="287" y="538"/>
      <point x="212" y="534"/>
      <point x="160" y="527" type="curve"/>
    </contour>
  </outline>
</glyph>
<glyph name="z" format="1">
  <advance width="498"/>
  <unicode hex="007A"/>
  <note>
    GF Latin Plus glyph
  </note>
  <outline>
    <contour>
      <point x="62" y="1" type="line"/>
      <point x="449" y="1" type="line"/>
      <point x="449" y="1"/>
      <point x="456" y="35"/>
      <point x="455" y="36" type="curve"/>
      <point x="113" y="36" type="line"/>
      <point x="510" y="498" type="line"/>
      <point x="515" y="532" type="line"/>
      <point x="131" y="532" type="line"/>
      <point x="126" y="497" type="line"/>
      <point x="463" y="497" type="line"/>
      <point x="66" y="34" type="line"/>
    </contour>
    <contour>
      <point x="345" y="650" type="move" name="top"/>
    </contour>
    <contour>
      <point x="219" y="-150" type="move" name="bottom"/>
    </contour>
  </outline>
</glyph>
<glyph name="braceright" format="1">
  <advance width="306"/>
  <unicode hex="007D"/>
  <note>
    GF Latin Plus glyph
  </note>
  <outline>
    <contour>
      <point x="0" y="-176" type="curve"/>
      <point x="-5" y="-210" type="line"/>
      <point x="147" y="-210"/>
      <point x="178" y="-123"/>
      <point x="191" y="-38" type="curve" smooth="yes"/>
      <point x="232" y="222" type="line" smooth="yes"/>
      <point x="241" y="274"/>
      <point x="285" y="292"/>
      <point x="330" y="292" type="curve"/>
      <point x="336" y="334" type="line"/>
      <point x="306" y="338"/>
      <point x="260" y="348"/>
      <point x="260" y="394" type="curve" smooth="yes"/>
      <point x="260" y="420"/>
      <point x="305" y="690"/>
      <point x="305" y="712" type="curve" smooth="yes"/>
      <point x="305" y="786"/>
      <point x="272" y="842"/>
      <point x="162" y="842" type="curve"/>
      <point x="156" y="807" type="line"/>
      <point x="224" y="807"/>
      <point x="263" y="781"/>
      <point x="263" y="705" type="curve" smooth="yes"/>
      <point x="263" y="667"/>
      <point x="218" y="431"/>
      <point x="218" y="387" type="curve" smooth="yes"/>
      <point x="218" y="345"/>
      <point x="248" y="319"/>
      <point x="288" y="314" type="curve"/>
      <point x="232" y="307"/>
      <point x="200" y="272"/>
      <point x="193" y="229" type="curve" smooth="yes"/>
      <point x="150" y="-35" type="line" smooth="yes"/>
      <point x="133" y="-142"/>
      <point x="86" y="-176"/>
    </contour>
  </outline>
</glyph>
<glyph name="degree" format="1">
  <advance width="335"/>
  <unicode hex="00B0"/>
  <note>
    GF Latin Plus glyph
  </note>
  <outline>
    <contour>
      <point x="285" y="736" type="curve" smooth="yes"/>
      <point x="339" y="736"/>
      <point x="372" y="700"/>
      <point x="372" y="650" type="curve" smooth="yes"/>
      <point x="372" y="580"/>
      <point x="322" y="527"/>
      <point x="252" y="527" type="curve" smooth="yes"/>
      <point x="198" y="527"/>
      <point x="163" y="563"/>
      <point x="163" y="613" type="curve" smooth="yes"/>
      <point x="163" y="681"/>
      <point x="214" y="736"/>
    </contour>
    <contour>
      <point x="141" y="609" type="curve" smooth="yes"/>
      <point x="141" y="548"/>
      <point x="184" y="506"/>
      <point x="249" y="506" type="curve" smooth="yes"/>
      <point x="335" y="506"/>
      <point x="394" y="565"/>
      <point x="394" y="653" type="curve" smooth="yes"/>
      <point x="394" y="715"/>
      <point x="353" y="757"/>
      <point x="289" y="757" type="curve" smooth="yes"/>
      <point x="202" y="757"/>
      <point x="141" y="696"/>
    </contour>
  </outline>
</glyph>
<glyph name="germandbls" format="1">
  <advance width="571"/>
  <unicode hex="00DF"/>
  <note>
    GF Latin Plus glyph
  </note>
  <outline>
    <contour>
      <point x="76" y="0" type="line"/>
      <point x="117" y="0" type="line"/>
      <point x="206" y="556" type="line" smooth="yes"/>
      <point x="226" y="683"/>
      <point x="289" y="732"/>
      <point x="396" y="732" type="curve" smooth="yes"/>
      <point x="472" y="732"/>
      <point x="520" y="692"/>
      <point x="520" y="623" type="curve" smooth="yes"/>
      <point x="520" y="511"/>
      <point x="343" y="454"/>
      <point x="343" y="350" type="curve" smooth="yes"/>
      <point x="343" y="238"/>
      <point x="521" y="264"/>
      <point x="521" y="173" type="curve" smooth="yes"/>
      <point x="521" y="161"/>
      <point x="519" y="148"/>
      <point x="515" y="125" type="curve" smooth="yes"/>
      <point x="509" y="89"/>
      <point x="483" y="28"/>
      <point x="386" y="28" type="curve" smooth="yes"/>
      <point x="321" y="28"/>
      <point x="259" y="31"/>
      <point x="221" y="33" type="curve"/>
      <point x="217" y="7" type="line"/>
      <point x="250" y="0"/>
      <point x="318" y="-6"/>
      <point x="385" y="-6" type="curve" smooth="yes"/>
      <point x="471" y="-6"/>
      <point x="539" y="36"/>
      <point x="555" y="124" type="curve" smooth="yes"/>
      <point x="561" y="160"/>
      <point x="561" y="171"/>
      <point x="561" y="178" type="curve" smooth="yes"/>
      <point x="561" y="297"/>
      <point x="384" y="266"/>
      <point x="384" y="356" type="curve" smooth="yes"/>
      <point x="384" y="442"/>
      <point x="560" y="501"/>
      <point x="560" y="627" type="curve" smooth="yes"/>
      <point x="560" y="704"/>
      <point x="512" y="769"/>
      <point x="399" y="769" type="curve" smooth="yes"/>
      <point x="262" y="769"/>
      <point x="188" y="703"/>
      <point x="166" y="564" type="curve" smooth="yes"/>
    </contour>
  </outline>
</glyph>
<glyph name="Uhorn" format="1">
  <advance width="670"/>
  <unicode hex="01AF"/>
  <note>
    GF Latin Plus glyph
  </note>
  <outline>
    <contour>
      <point x="669" y="708" type="line"/>
      <point x="694" y="708" type="line" smooth="yes"/>
      <point x="749" y="708"/>
      <point x="810" y="738"/>
      <point x="828" y="848" type="curve"/>
      <point x="795" y="848" type="line"/>
      <point x="781" y="762"/>
      <point x="742" y="733"/>
      <point x="695" y="733" type="curve" smooth="yes"/>
      <point x="674" y="733" type="line"/>
    </contour>
    <component base="U"/>
    <contour>
      <point x="454" y="810" type="move" name="top"/>
    </contour>
    <contour>
      <point x="308" y="-150" type="move" name="bottom"/>
    </contour>
  </outline>
</glyph>
<glyph name="zerosuperior" format="1">
  <advance width="420"/>
  <unicode hex="2070"/>
  <outline>
    <contour>
      <point x="159" y="470" type="curve" smooth="yes"/>
      <point x="199" y="731" type="line" smooth="yes"/>
      <point x="208" y="784"/>
      <point x="248" y="814"/>
      <point x="302" y="814" type="curve" smooth="yes"/>
      <point x="378" y="814" type="line" smooth="yes"/>
      <point x="435" y="814"/>
      <point x="453" y="793"/>
      <point x="454" y="751" type="curve" smooth="yes"/>
      <point x="454" y="745"/>
      <point x="453" y="738"/>
      <point x="452" y="731" type="curve" smooth="yes"/>
      <point x="411" y="470" type="line" smooth="yes"/>
      <point x="402" y="418"/>
      <point x="372" y="386"/>
      <point x="310" y="386" type="curve" smooth="yes"/>
      <point x="235" y="386" type="line" smooth="yes"/>
      <point x="181" y="386"/>
      <point x="157" y="408"/>
      <point x="157" y="451" type="curve" smooth="yes"/>
      <point x="157" y="456"/>
      <point x="158" y="463"/>
    </contour>
    <contour>
      <point x="123" y="466" type="line" smooth="yes"/>
      <point x="121" y="457"/>
      <point x="121" y="449"/>
      <point x="121" y="442" type="curve" smooth="yes"/>
      <point x="121" y="382"/>
      <point x="166" y="354"/>
      <point x="225" y="354" type="curve" smooth="yes"/>
      <point x="311" y="354" type="line" smooth="yes"/>
      <point x="381" y="354"/>
      <point x="433" y="387"/>
      <point x="446" y="466" type="curve" smooth="yes"/>
      <point x="488" y="733" type="line" smooth="yes"/>
      <point x="489" y="742"/>
      <point x="490" y="751"/>
      <point x="490" y="760" type="curve" smooth="yes"/>
      <point x="490" y="808"/>
      <point x="460" y="846"/>
      <point x="389" y="846" type="curve" smooth="yes"/>
      <point x="303" y="846" type="line" smooth="yes"/>
      <point x="234" y="846"/>
      <point x="177" y="808"/>
      <point x="165" y="733" type="curve" smooth="yes"/>
    </contour>
  </outline>
</glyph>
<glyph name="sixsuperior" format="1">
  <advance width="420"/>
  <unicode hex="2076"/>
  <outline>
    <contour>
      <point x="187" y="592" type="curve"/>
      <point x="328" y="592" type="line" smooth="yes"/>
      <point x="391" y="592"/>
      <point x="431" y="583"/>
      <point x="431" y="537" type="curve" smooth="yes"/>
      <point x="431" y="532"/>
      <point x="430" y="526"/>
      <point x="429" y="520" type="curve" smooth="yes"/>
      <point x="420" y="460" type="line" smooth="yes"/>
      <point x="411" y="398"/>
      <point x="369" y="385"/>
      <point x="325" y="385" type="curve" smooth="yes"/>
      <point x="255" y="385" type="line" smooth="yes"/>
      <point x="208" y="385"/>
      <point x="178" y="409"/>
      <point x="178" y="492" type="curve" smooth="yes"/>
      <point x="178" y="519"/>
      <point x="181" y="552"/>
    </contour>
    <contour>
      <point x="144" y="491" type="curve" smooth="yes"/>
      <point x="144" y="383"/>
      <point x="185" y="354"/>
      <point x="247" y="354" type="curve" smooth="yes"/>
      <point x="325" y="354" type="line" smooth="yes"/>
      <point x="386" y="354"/>
      <point x="443" y="380"/>
      <point x="454" y="456" type="curve" smooth="yes"/>
      <point x="465" y="524" type="line" smooth="yes"/>
      <point x="466" y="532"/>
      <point x="467" y="540"/>
      <point x="467" y="546" type="curve" smooth="yes"/>
      <point x="467" y="606"/>
      <point x="417" y="623"/>
      <point x="339" y="623" type="curve" smooth="yes"/>
      <point x="304" y="623"/>
      <point x="237" y="621"/>
      <point x="191" y="617" type="curve"/>
      <point x="215" y="751"/>
      <point x="286" y="814"/>
      <point x="367" y="814" type="curve" smooth="yes"/>
      <point x="481" y="814" type="line"/>
      <point x="485" y="841" type="line"/>
      <point x="450" y="843"/>
      <point x="400" y="846"/>
      <point x="364" y="846" type="curve" smooth="yes"/>
      <point x="226" y="846"/>
      <point x="143" y="692"/>
    </contour>
  </outline>
</glyph>
<glyph name="dong" format="1">
  <advance width="609"/>
  <unicode hex="20AB"/>
  <note>
    GF Latin Plus glyph
  </note>
  <outline>
    <contour>
      <point x="74" y="-28" type="line"/>
      <point x="545" y="-28" type="line"/>
      <point x="551" y="8" type="line"/>
      <point x="80" y="8" type="line"/>
    </contour>
    <contour>
      <point x="420" y="677" type="line"/>
      <point x="687" y="677" type="line"/>
      <point x="690" y="698" type="line"/>
      <point x="423" y="698" type="line"/>
    </contour>
    <contour>
      <point x="379" y="544" type="curve" smooth="yes"/>
      <point x="446" y="544"/>
      <point x="488" y="531"/>
      <point x="546" y="515" type="curve"/>
      <point x="498" y="207" type="line"/>
      <point x="444" y="181"/>
      <point x="382" y="153"/>
      <point x="308" y="153" type="curve" smooth="yes"/>
      <point x="215" y="153"/>
      <point x="174" y="193"/>
      <point x="174" y="282" type="curve" smooth="yes"/>
      <point x="174" y="409"/>
      <point x="238" y="544"/>
    </contour>
    <contour>
      <point x="132" y="274" type="curve" smooth="yes"/>
      <point x="132" y="170"/>
      <point x="182" y="118"/>
      <point x="295" y="118" type="curve" smooth="yes"/>
      <point x="360" y="118"/>
      <point x="462" y="155"/>
      <point x="493" y="180" type="curve"/>
      <point x="494" y="124" type="line"/>
      <point x="525" y="124" type="line"/>
      <point x="630" y="783" type="line"/>
      <point x="588" y="783" type="line"/>
      <point x="551" y="544" type="line"/>
      <point x="506" y="560"/>
      <point x="443" y="578"/>
      <point x="377" y="578" type="curve" smooth="yes"/>
      <point x="208" y="578"/>
      <point x="132" y="417"/>
    </contour>
  </outline>
</glyph>
<glyph name="peso" format="1">
  <advance width="609"/>
  <unicode hex="20B1"/>
  <note>
    GF Latin Plus glyph
  </note>
  <outline>
    <contour>
      <point x="581" y="553" type="line"/>
      <point x="687" y="553" type="line"/>
      <point x="691" y="582" type="line"/>
      <point x="585" y="582" type="line"/>
    </contour>
    <contour>
      <point x="98" y="553" type="line"/>
      <point x="239" y="553" type="line"/>
      <point x="243" y="582" type="line"/>
      <point x="102" y="582" type="line"/>
    </contour>
    <contour>
      <point x="532" y="385" type="line"/>
      <point x="660" y="385" type="line"/>
      <point x="665" y="414" type="line"/>
      <point x="550" y="414" type="line"/>
    </contour>
    <contour>
      <point x="71" y="385" type="line"/>
      <point x="215" y="385" type="line"/>
      <point x="220" y="414" type="line"/>
      <point x="76" y="414" type="line"/>
    </contour>
    <contour>
      <point x="221" y="314" type="line"/>
      <point x="280" y="696" type="line"/>
      <point x="442" y="696" type="line" smooth="yes"/>
      <point x="503" y="696"/>
      <point x="559" y="672"/>
      <point x="559" y="570" type="curve" smooth="yes"/>
      <point x="559" y="409"/>
      <point x="466" y="314"/>
      <point x="366" y="314" type="curve" smooth="yes"/>
    </contour>
    <contour>
      <point x="132" y="0" type="line"/>
      <point x="171" y="0" type="line"/>
      <point x="216" y="284" type="line"/>
      <point x="258" y="282"/>
      <point x="317" y="277"/>
      <point x="370" y="277" type="curve" smooth="yes"/>
      <point x="481" y="277"/>
      <point x="599" y="385"/>
      <point x="599" y="577" type="curve" smooth="yes"/>
      <point x="599" y="708"/>
      <point x="520" y="733"/>
      <point x="450" y="733" type="curve" smooth="yes"/>
      <point x="248" y="733" type="line"/>
    </contour>
  </outline>
</glyph>
<glyph name="trademark" format="1">
  <advance width="705"/>
  <unicode hex="2122"/>
  <note>
    GF Latin Plus glyph
  </note>
  <outline>
    <contour>
      <point x="384" y="383" type="line"/>
      <point x="408" y="383" type="line"/>
      <point x="480" y="686" type="line"/>
      <point x="561" y="383" type="line"/>
      <point x="578" y="383" type="line"/>
      <point x="744" y="685" type="line"/>
      <point x="724" y="383" type="line"/>
      <point x="747" y="383" type="line"/>
      <point x="769" y="732" type="line"/>
      <point x="746" y="732" type="line"/>
      <point x="575" y="420" type="line"/>
      <point x="491" y="732" type="line"/>
      <point x="468" y="732" type="line"/>
    </contour>
    <contour>
      <point x="206" y="383" type="line"/>
      <point x="230" y="383" type="line"/>
      <point x="282" y="710" type="line"/>
      <point x="401" y="710" type="line"/>
      <point x="404" y="732" type="line"/>
      <point x="141" y="732" type="line"/>
      <point x="138" y="710" type="line"/>
      <point x="258" y="710" type="line"/>
    </contour>
  </outline>
</glyph>
<glyph name="emptyset" format="1">
  <advance width="609"/>
  <unicode hex="2205"/>
  <outline>
    <contour>
      <point x="622" y="602" type="line"/>
      <point x="69" y="-41" type="line"/>
      <point x="86" y="-58" type="line"/>
      <point x="638" y="586" type="line"/>
    </contour>
    <contour>
      <point x="170" y="234" type="curve" smooth="yes"/>
      <point x="170" y="297" type="line" smooth="yes"/>
      <point x="170" y="439"/>
      <point x="234" y="499"/>
      <point x="317" y="499" type="curve" smooth="yes"/>
      <point x="390" y="499" type="line" smooth="yes"/>
      <point x="473" y="499"/>
      <point x="537" y="439"/>
      <point x="537" y="297" type="curve" smooth="yes"/>
      <point x="537" y="234" type="line" smooth="yes"/>
      <point x="537" y="92"/>
      <point x="473" y="32"/>
      <point x="390" y="32" type="curve" smooth="yes"/>
      <point x="317" y="32" type="line" smooth="yes"/>
      <point x="234" y="32"/>
      <point x="170" y="92"/>
    </contour>
    <contour>
      <point x="129" y="226" type="line" smooth="yes"/>
      <point x="129" y="100"/>
      <point x="188" y="-6"/>
      <point x="319" y="-6" type="curve" smooth="yes"/>
      <point x="388" y="-6" type="line" smooth="yes"/>
      <point x="519" y="-6"/>
      <point x="578" y="100"/>
      <point x="578" y="226" type="curve" smooth="yes"/>
      <point x="578" y="305" type="line" smooth="yes"/>
      <point x="578" y="431"/>
      <point x="519" y="537"/>
      <point x="388" y="537" type="curve" smooth="yes"/>
      <point x="319" y="537" type="line" smooth="yes"/>
      <point x="188" y="537"/>
      <point x="129" y="431"/>
      <point x="129" y="305" type="curve" smooth="yes"/>
    </contour>
  </outline>
</glyph>
<glyph name="product" format="1">
  <advance width="587"/>
  <unicode hex="220F"/>
  <outline>
    <contour>
      <point x="103" y="0" type="line"/>
      <point x="144" y="0" type="line"/>
      <point x="254" y="696" type="line"/>
      <point x="547" y="696" type="line"/>
      <point x="437" y="0" type="line"/>
      <point x="478" y="0" type="line"/>
      <point x="588" y="696" type="line"/>
      <point x="673" y="696" type="line"/>
      <point x="679" y="733" type="line"/>
      <point x="135" y="733" type="line"/>
      <point x="129" y="696" type="line"/>
      <point x="213" y="696" type="line"/>
    </contour>
  </outline>
</glyph>
<glyph name="C.smcp" format="1">
  <advance width="500"/>
  <note>
    GF Latin Plus glyph
  </note>
  <outline>
    <contour>
      <point x="111" y="290" type="curve" smooth="yes"/>
      <point x="105" y="252"/>
      <point x="99" y="205"/>
      <point x="99" y="166" type="curve" smooth="yes"/>
      <point x="100" y="54"/>
      <point x="148" y="-5"/>
      <point x="262" y="-5" type="curve" smooth="yes"/>
      <point x="319" y="-5"/>
      <point x="384" y="1"/>
      <point x="436" y="12" type="curve"/>
      <point x="441" y="40" type="line"/>
      <point x="396" y="34"/>
      <point x="354" y="30"/>
      <point x="271" y="30" type="curve" smooth="yes"/>
      <point x="177" y="30"/>
      <point x="141" y="70"/>
      <point x="140" y="166" type="curve" smooth="yes"/>
      <point x="140" y="198"/>
      <point x="145" y="244"/>
      <point x="151" y="280" type="curve" smooth="yes"/>
      <point x="180" y="452"/>
      <point x="233" y="530"/>
      <point x="348" y="530" type="curve" smooth="yes"/>
      <point x="412" y="530"/>
      <point x="464" y="525"/>
      <point x="517" y="516" type="curve"/>
      <point x="522" y="545" type="line"/>
      <point x="480" y="554"/>
      <point x="424" y="565"/>
      <point x="346" y="565" type="curve" smooth="yes"/>
      <point x="203" y="565"/>
      <point x="138" y="466"/>
    </contour>
    <contour>
      <point x="366" y="650" type="move" name="top"/>
    </contour>
    <contour>
      <point x="250" y="-150" type="move" name="bottom"/>
    </contour>
  </outline>
</glyph>
<glyph name="E.smcp" format="1">
  <advance width="486"/>
  <note>
    GF Latin Plus glyph
  </note>
  <outline>
    <contour>
      <point x="90" y="103" type="line" smooth="yes"/>
      <point x="76" y="12"/>
      <point x="136" y="-5"/>
      <point x="191" y="-5" type="curve" smooth="yes"/>
      <point x="259" y="-5"/>
      <point x="379" y="-2"/>
      <point x="427" y="1" type="curve"/>
      <point x="431" y="30" type="line"/>
      <point x="203" y="30" type="line" smooth="yes"/>
      <point x="154" y="30"/>
      <point x="121" y="42"/>
      <point x="131" y="106" type="curve" smooth="yes"/>
      <point x="155" y="261" type="line"/>
      <point x="433" y="262" type="line"/>
      <point x="438" y="291" type="line"/>
      <point x="161" y="296" type="line"/>
      <point x="184" y="449" type="line" smooth="yes"/>
      <point x="193" y="506"/>
      <point x="226" y="525"/>
      <point x="273" y="525" type="curve" smooth="yes"/>
      <point x="508" y="525" type="line"/>
      <point x="513" y="554" type="line"/>
      <point x="500" y="555"/>
      <point x="284" y="560"/>
      <point x="272" y="560" type="curve" smooth="yes"/>
      <point x="215" y="561"/>
      <point x="159" y="537"/>
      <point x="146" y="458" type="curve" smooth="yes"/>
    </contour>
    <contour>
      <point x="364" y="650" type="move" name="top"/>
    </contour>
    <contour>
      <point x="417" y="1" type="move" name="ogonek"/>
    </contour>
    <contour>
      <point x="228" y="-150" type="move" name="bottom"/>
    </contour>
  </outline>
</glyph>
<glyph name="G.smcp" format="1">
  <advance width="540"/>
  <note>
    GF Latin Plus glyph
  </note>
  <outline>
    <contour>
      <point x="111" y="291" type="curve" smooth="yes"/>
      <point x="104" y="246"/>
      <point x="99" y="205"/>
      <point x="100" y="167" type="curve" smooth="yes"/>
      <point x="101" y="48"/>
      <point x="144" y="-5"/>
      <point x="255" y="-5" type="curve" smooth="yes"/>
      <point x="320" y="-5"/>
      <point x="413" y="26"/>
      <point x="440" y="40" type="curve"/>
      <point x="441" y="0" type="line"/>
      <point x="469" y="0" type="line"/>
      <point x="515" y="288" type="line"/>
      <point x="496" y="289"/>
      <point x="472" y="290"/>
      <point x="453" y="290" type="curve" smooth="yes"/>
      <point x="389" y="290"/>
      <point x="345" y="288"/>
      <point x="316" y="285" type="curve"/>
      <point x="312" y="257" type="line"/>
      <point x="471" y="257" type="line"/>
      <point x="441" y="66" type="line"/>
      <point x="410" y="52"/>
      <point x="322" y="30"/>
      <point x="265" y="30" type="curve" smooth="yes"/>
      <point x="177" y="30"/>
      <point x="141" y="71"/>
      <point x="140" y="164" type="curve" smooth="yes"/>
      <point x="140" y="196"/>
      <point x="143" y="235"/>
      <point x="151" y="280" type="curve" smooth="yes"/>
      <point x="176" y="440"/>
      <point x="225" y="531"/>
      <point x="354" y="531" type="curve" smooth="yes"/>
      <point x="426" y="531"/>
      <point x="489" y="524"/>
      <point x="535" y="514" type="curve"/>
      <point x="539" y="542" type="line"/>
      <point x="492" y="555"/>
      <point x="437" y="566"/>
      <point x="353" y="566" type="curve" smooth="yes"/>
      <point x="201" y="566"/>
      <point x="136" y="456"/>
    </contour>
    <contour>
      <point x="380" y="650" type="move" name="top"/>
    </contour>
    <contour>
      <point x="244" y="-150" type="move" name="bottom"/>
    </contour>
  </outline>
</glyph>
<glyph name="Germandbls.smcp" format="1">
  <advance width="548"/>
  <note>
    GF Latin Plus glyph
  </note>
  <outline>
    <contour>
      <point x="327" y="290" type="line"/>
      <point x="540" y="527" type="line"/>
      <point x="545" y="556" type="line"/>
      <point x="496" y="526" type="line"/>
      <point x="290" y="295" type="line"/>
    </contour>
    <contour>
      <point x="286" y="264" type="line"/>
      <point x="384" y="264" type="line" smooth="yes"/>
      <point x="447" y="264"/>
      <point x="472" y="240"/>
      <point x="472" y="196" type="curve" smooth="yes"/>
      <point x="472" y="188"/>
      <point x="472" y="180"/>
      <point x="464" y="126" type="curve" smooth="yes"/>
      <point x="451" y="45"/>
      <point x="385" y="30"/>
      <point x="308" y="30" type="curve" smooth="yes"/>
      <point x="267" y="30"/>
      <point x="222" y="32"/>
      <point x="199" y="35" type="curve"/>
      <point x="195" y="5" type="line"/>
      <point x="218" y="1"/>
      <point x="281" y="-5"/>
      <point x="306" y="-5" type="curve" smooth="yes"/>
      <point x="400" y="-5"/>
      <point x="486" y="21"/>
      <point x="504" y="122" type="curve" smooth="yes"/>
      <point x="513" y="179"/>
      <point x="514" y="190"/>
      <point x="514" y="198" type="curve" smooth="yes"/>
      <point x="513" y="258"/>
      <point x="473" y="295"/>
      <point x="393" y="295" type="curve" smooth="yes"/>
      <point x="290" y="295" type="line"/>
    </contour>
    <contour>
      <point x="79" y="0" type="line"/>
      <point x="119" y="0" type="line"/>
      <point x="190" y="450" type="line" smooth="yes"/>
      <point x="199" y="502"/>
      <point x="232" y="526"/>
      <point x="279" y="526" type="curve" smooth="yes"/>
      <point x="528" y="526" type="line"/>
      <point x="545" y="556" type="line"/>
      <point x="533" y="557"/>
      <point x="303" y="560"/>
      <point x="285" y="560" type="curve" smooth="yes"/>
      <point x="218" y="561"/>
      <point x="164" y="531"/>
      <point x="150" y="450" type="curve" smooth="yes"/>
    </contour>
  </outline>
</glyph>
<glyph name="L.smcp" format="1">
  <advance width="445"/>
  <note>
    GF Latin Plus glyph
  </note>
  <outline>
    <contour>
      <point x="90" y="104" type="line" smooth="yes"/>
      <point x="88" y="95"/>
      <point x="88" y="86"/>
      <point x="88" y="76" type="curve" smooth="yes"/>
      <point x="88" y="18"/>
      <point x="127" y="0"/>
      <point x="187" y="0" type="curve" smooth="yes"/>
      <point x="413" y="0" type="line"/>
      <point x="418" y="34" type="line"/>
      <point x="195" y="34" type="line" smooth="yes"/>
      <point x="159" y="34"/>
      <point x="129" y="42"/>
      <point x="129" y="84" type="curve" smooth="yes"/>
      <point x="129" y="92"/>
      <point x="129" y="100"/>
      <point x="131" y="109" type="curve" smooth="yes"/>
      <point x="202" y="560" type="line"/>
      <point x="162" y="560" type="line"/>
    </contour>
    <contour>
      <point x="207" y="650" type="move" name="top"/>
    </contour>
    <contour>
      <point x="254" y="449" type="move" name="altcaron"/>
    </contour>
    <contour>
      <point x="210" y="-150" type="move" name="bottom"/>
    </contour>
  </outline>
</glyph>
<glyph name="M.salt.smcp" format="1">
  <advance width="690"/>
  <outline>
    <contour>
      <point x="63" y="0" type="line"/>
      <point x="101" y="0" type="line"/>
      <point x="219" y="491" type="line" smooth="yes"/>
      <point x="225" y="520"/>
      <point x="242" y="530"/>
      <point x="257" y="530" type="curve" smooth="yes"/>
      <point x="272" y="530"/>
      <point x="283" y="519"/>
      <point x="286" y="498" type="curve" smooth="yes"/>
      <point x="328" y="200" type="line" smooth="yes"/>
      <point x="331" y="170"/>
      <point x="349" y="155"/>
      <point x="376" y="155" type="curve" smooth="yes"/>
      <point x="403" y="155"/>
      <point x="426" y="169"/>
      <point x="438" y="200" type="curve" smooth="yes"/>
      <point x="566" y="499" type="line" smooth="yes"/>
      <point x="575" y="520"/>
      <point x="588" y="530"/>
      <point x="598" y="530" type="curve" smooth="yes"/>
      <point x="609" y="530"/>
      <point x="617" y="524"/>
      <point x="617" y="498" type="curve" smooth="yes"/>
      <point x="617" y="496"/>
      <point x="617" y="494"/>
      <point x="617" y="490" type="curve" smooth="yes"/>
      <point x="581" y="0" type="line"/>
      <point x="620" y="0" type="line"/>
      <point x="656" y="493" type="line" smooth="yes"/>
      <point x="656" y="496"/>
      <point x="657" y="501"/>
      <point x="657" y="505" type="curve" smooth="yes"/>
      <point x="656" y="553"/>
      <point x="637" y="567"/>
      <point x="605" y="567" type="curve" smooth="yes"/>
      <point x="576" y="567"/>
      <point x="550" y="551"/>
      <point x="535" y="510" type="curve" smooth="yes"/>
      <point x="410" y="216" type="line" smooth="yes"/>
      <point x="405" y="200"/>
      <point x="394" y="194"/>
      <point x="382" y="194" type="curve" smooth="yes"/>
      <point x="370" y="194"/>
      <point x="363" y="200"/>
      <point x="360" y="217" type="curve" smooth="yes"/>
      <point x="319" y="509" type="line" smooth="yes"/>
      <point x="316" y="547"/>
      <point x="297" y="567"/>
      <point x="262" y="567" type="curve" smooth="yes"/>
      <point x="225" y="567"/>
      <point x="193" y="548"/>
      <point x="180" y="491" type="curve" smooth="yes"/>
    </contour>
    <contour>
      <point x="439" y="650" type="move" name="top"/>
    </contour>
    <contour>
      <point x="321" y="-150" type="move" name="bottom"/>
    </contour>
  </outline>
</glyph>
<glyph name="M.smcp" format="1">
  <advance width="664"/>
  <note>
    GF Latin Plus glyph
  </note>
  <outline>
    <contour>
      <point x="64" y="0" type="line"/>
      <point x="105" y="0" type="line"/>
      <point x="238" y="487" type="line"/>
      <point x="324" y="0" type="line"/>
      <point x="362" y="0" type="line"/>
      <point x="602" y="488" type="line"/>
      <point x="583" y="0" type="line"/>
      <point x="622" y="0" type="line"/>
      <point x="643" y="560" type="line"/>
      <point x="606" y="560" type="line"/>
      <point x="351" y="58" type="line"/>
      <point x="257" y="560" type="line"/>
      <point x="220" y="560" type="line"/>
    </contour>
    <contour>
      <point x="442" y="650" type="move" name="top"/>
    </contour>
    <contour>
      <point x="313" y="-150" type="move" name="bottom"/>
    </contour>
  </outline>
</glyph>
<glyph name="T.smcp" format="1">
  <advance width="512"/>
  <note>
    GF Latin Plus glyph
  </note>
  <outline>
    <contour>
      <point x="118" y="526" type="line"/>
      <point x="315" y="526" type="line"/>
      <point x="232" y="0" type="line"/>
      <point x="272" y="0" type="line"/>
      <point x="355" y="526" type="line"/>
      <point x="552" y="526" type="line"/>
      <point x="558" y="560" type="line"/>
      <point x="124" y="560" type="line"/>
    </contour>
    <contour>
      <point x="351" y="650" type="move" name="top"/>
    </contour>
    <contour>
      <point x="228" y="-150" type="move" name="bottom"/>
    </contour>
  </outline>
</glyph>
<glyph name="Thorn.smcp" format="1">
  <advance width="463"/>
  <note>
    GF Latin Plus glyph
  </note>
  <outline>
    <contour>
      <point x="201" y="560" type="line"/>
      <point x="162" y="560" type="line"/>
      <point x="74" y="0" type="line"/>
      <point x="114" y="0" type="line"/>
    </contour>
    <contour>
      <point x="167" y="416" type="line"/>
      <point x="308" y="416" type="line" smooth="yes"/>
      <point x="372" y="416"/>
      <point x="410" y="392"/>
      <point x="411" y="330" type="curve" smooth="yes"/>
      <point x="411" y="319"/>
      <point x="409" y="298"/>
      <point x="407" y="283" type="curve" smooth="yes"/>
      <point x="392" y="191"/>
      <point x="330" y="167"/>
      <point x="264" y="167" type="curve" smooth="yes"/>
      <point x="130" y="167" type="line"/>
      <point x="125" y="139" type="line"/>
      <point x="174" y="136"/>
      <point x="220" y="132"/>
      <point x="267" y="132" type="curve" smooth="yes"/>
      <point x="342" y="132"/>
      <point x="428" y="160"/>
      <point x="447" y="281" type="curve" smooth="yes"/>
      <point x="449" y="296"/>
      <point x="452" y="319"/>
      <point x="452" y="332" type="curve" smooth="yes"/>
      <point x="450" y="422"/>
      <point x="391" y="449"/>
      <point x="315" y="449" type="curve" smooth="yes"/>
      <point x="170" y="449" type="line"/>
    </contour>
  </outline>
</glyph>
<glyph name="U.smcp" format="1">
  <advance width="567"/>
  <note>
    GF Latin Plus glyph
  </note>
  <outline>
    <contour>
      <point x="113" y="247" type="line" smooth="yes"/>
      <point x="107" y="212"/>
      <point x="104" y="173"/>
      <point x="105" y="146" type="curve" smooth="yes"/>
      <point x="106" y="35"/>
      <point x="168" y="-5"/>
      <point x="283" y="-5" type="curve" smooth="yes"/>
      <point x="413" y="-5"/>
      <point x="498" y="28"/>
      <point x="532" y="241" type="curve" smooth="yes"/>
      <point x="582" y="560" type="line"/>
      <point x="542" y="560" type="line"/>
      <point x="492" y="244" type="line" smooth="yes"/>
      <point x="462" y="56"/>
      <point x="395" y="30"/>
      <point x="284" y="30" type="curve" smooth="yes"/>
      <point x="193" y="30"/>
      <point x="145" y="58"/>
      <point x="144" y="148" type="curve" smooth="yes"/>
      <point x="143" y="173"/>
      <point x="147" y="210"/>
      <point x="152" y="244" type="curve" smooth="yes"/>
      <point x="202" y="560" type="line"/>
      <point x="162" y="560" type="line"/>
    </contour>
    <contour>
      <point x="378" y="650" type="move" name="top"/>
    </contour>
    <contour>
      <point x="344" y="0" type="move" name="ogonek"/>
    </contour>
    <contour>
      <point x="253" y="-150" type="move" name="bottom"/>
    </contour>
  </outline>
</glyph>
<glyph name="X.salt.smcp" format="1">
  <advance width="519"/>
  <outline>
    <contour>
      <point x="49" y="0" type="line"/>
      <point x="93" y="0" type="line"/>
      <point x="247" y="193" type="line" smooth="yes"/>
      <point x="274" y="228"/>
      <point x="290" y="264"/>
      <point x="290" y="301" type="curve" smooth="yes"/>
      <point x="290" y="327"/>
      <point x="279" y="355"/>
      <point x="266" y="381" type="curve" smooth="yes"/>
      <point x="178" y="560" type="line"/>
      <point x="136" y="560" type="line"/>
      <point x="230" y="368" type="line" smooth="yes"/>
      <point x="241" y="346"/>
      <point x="250" y="323"/>
      <point x="250" y="300" type="curve" smooth="yes"/>
      <point x="250" y="265"/>
      <point x="239" y="242"/>
      <point x="212" y="207" type="curve" smooth="yes"/>
    </contour>
    <contour>
      <point x="428" y="0" type="line"/>
      <point x="471" y="0" type="line"/>
      <point x="372" y="205" type="line" smooth="yes"/>
      <point x="364" y="222"/>
      <point x="360" y="240"/>
      <point x="360" y="258" type="curve" smooth="yes"/>
      <point x="360" y="294"/>
      <point x="380" y="330"/>
      <point x="406" y="364" type="curve" smooth="yes"/>
      <point x="560" y="560" type="line"/>
      <point x="518" y="560" type="line"/>
      <point x="375" y="380" type="line" smooth="yes"/>
      <point x="344" y="341"/>
      <point x="320" y="297"/>
      <point x="320" y="253" type="curve" smooth="yes"/>
      <point x="320" y="232"/>
      <point x="325" y="212"/>
      <point x="336" y="192" type="curve" smooth="yes"/>
    </contour>
    <contour>
      <point x="360" y="650" type="move" name="top"/>
    </contour>
    <contour>
      <point x="238" y="-150" type="move" name="bottom"/>
    </contour>
  </outline>
</glyph>
<glyph name="bracketright.smcp" format="1">
  <advance width="290"/>
  <note>
    GF Latin Plus glyph
  </note>
  <outline>
    <contour>
      <point x="11" y="-128" type="line"/>
      <point x="6" y="-161" type="line"/>
      <point x="52" y="-161" type="line" smooth="yes"/>
      <point x="156" y="-161"/>
      <point x="183" y="-74"/>
      <point x="190" y="-24" type="curve" smooth="yes"/>
      <point x="275" y="508" type="line" smooth="yes"/>
      <point x="276" y="519"/>
      <point x="278" y="532"/>
      <point x="278" y="545" type="curve" smooth="yes"/>
      <point x="277" y="594"/>
      <point x="257" y="643"/>
      <point x="179" y="643" type="curve" smooth="yes"/>
      <point x="133" y="643" type="line"/>
      <point x="128" y="611" type="line"/>
      <point x="166" y="611" type="line" smooth="yes"/>
      <point x="209" y="611"/>
      <point x="236" y="589"/>
      <point x="237" y="537" type="curve" smooth="yes"/>
      <point x="238" y="528"/>
      <point x="236" y="517"/>
      <point x="235" y="505" type="curve" smooth="yes"/>
      <point x="151" y="-23" type="line" smooth="yes"/>
      <point x="142" y="-82"/>
      <point x="111" y="-128"/>
      <point x="49" y="-128" type="curve" smooth="yes"/>
    </contour>
  </outline>
</glyph>
<glyph name="brevecomb_tildecomb" format="1">
  <outline>
    <contour>
      <point x="-402" y="736" type="line"/>
      <point x="-403" y="729"/>
      <point x="-404" y="721"/>
      <point x="-404" y="714" type="curve" smooth="yes"/>
      <point x="-404" y="650"/>
      <point x="-350" y="630"/>
      <point x="-293" y="630" type="curve" smooth="yes"/>
      <point x="-229" y="630"/>
      <point x="-161" y="651"/>
      <point x="-148" y="736" type="curve"/>
      <point x="-170" y="736" type="line"/>
      <point x="-182" y="661"/>
      <point x="-242" y="650"/>
      <point x="-292" y="650" type="curve" smooth="yes"/>
      <point x="-342" y="650"/>
      <point x="-382" y="670"/>
      <point x="-382" y="720" type="curve" smooth="yes"/>
      <point x="-382" y="724"/>
      <point x="-382" y="730"/>
      <point x="-381" y="736" type="curve"/>
    </contour>
    <contour>
      <point x="-425" y="770" type="curve"/>
      <point x="-403" y="770" type="line"/>
      <point x="-397" y="806"/>
      <point x="-366" y="820"/>
      <point x="-336" y="820" type="curve" smooth="yes"/>
      <point x="-280" y="820"/>
      <point x="-243" y="771"/>
      <point x="-187" y="771" type="curve" smooth="yes"/>
      <point x="-134" y="771"/>
      <point x="-99" y="799"/>
      <point x="-92" y="844" type="curve"/>
      <point x="-114" y="844" type="line"/>
      <point x="-118" y="811"/>
      <point x="-148" y="794"/>
      <point x="-183" y="794" type="curve" smooth="yes"/>
      <point x="-236" y="794"/>
      <point x="-271" y="844"/>
      <point x="-332" y="844" type="curve" smooth="yes"/>
      <point x="-369" y="844"/>
      <point x="-414" y="827"/>
    </contour>
    <contour>
      <point x="-283" y="650" type="move" name="_top"/>
    </contour>
  </outline>
</glyph>
<glyph name="euro.smcp" format="1">
  <advance width="517"/>
  <note>
    GF Latin Plus glyph
  </note>
  <outline>
    <contour>
      <point x="88" y="324" type="line"/>
      <point x="150" y="322" type="line"/>
      <point x="179" y="322" type="line"/>
      <point x="420" y="324" type="line"/>
      <point x="423" y="345" type="line"/>
      <point x="183" y="348" type="line"/>
      <point x="155" y="348" type="line"/>
      <point x="92" y="344" type="line"/>
    </contour>
    <contour>
      <point x="69" y="204" type="line"/>
      <point x="132" y="200" type="line"/>
      <point x="160" y="200" type="line"/>
      <point x="400" y="203" type="line"/>
      <point x="403" y="224" type="line"/>
      <point x="164" y="226" type="line"/>
      <point x="134" y="226" type="line"/>
      <point x="72" y="225" type="line"/>
    </contour>
    <component base="C.smcp" xOffset="25"/>
  </outline>
</glyph>
<glyph name="five.tosf" format="1">
  <advance width="609"/>
  <outline>
    <contour>
      <point x="64" y="-198" type="line"/>
      <point x="124" y="-204"/>
      <point x="210" y="-206"/>
      <point x="298" y="-206" type="curve" smooth="yes"/>
      <point x="421" y="-206"/>
      <point x="525" y="-147"/>
      <point x="542" y="-33" type="curve" smooth="yes"/>
      <point x="560" y="76" type="line" smooth="yes"/>
      <point x="562" y="85"/>
      <point x="562" y="96"/>
      <point x="562" y="104" type="curve" smooth="yes"/>
      <point x="562" y="182"/>
      <point x="507" y="236"/>
      <point x="404" y="236" type="curve" smooth="yes"/>
      <point x="333" y="236" type="line" smooth="yes"/>
      <point x="260" y="236"/>
      <point x="211" y="202"/>
      <point x="192" y="172" type="curve"/>
      <point x="259" y="495" type="line"/>
      <point x="605" y="495" type="line"/>
      <point x="610" y="532" type="line"/>
      <point x="228" y="532" type="line"/>
      <point x="139" y="100" type="line"/>
      <point x="177" y="100" type="line"/>
      <point x="201" y="169"/>
      <point x="249" y="200"/>
      <point x="320" y="200" type="curve" smooth="yes"/>
      <point x="390" y="200" type="line" smooth="yes"/>
      <point x="476" y="200"/>
      <point x="521" y="161"/>
      <point x="521" y="96" type="curve" smooth="yes"/>
      <point x="521" y="89"/>
      <point x="520" y="80"/>
      <point x="518" y="70" type="curve" smooth="yes"/>
      <point x="503" y="-27" type="line" smooth="yes"/>
      <point x="488" y="-119"/>
      <point x="401" y="-168"/>
      <point x="303" y="-168" type="curve" smooth="yes"/>
      <point x="69" y="-168" type="line"/>
    </contour>
  </outline>
</glyph>
<glyph name="four.tnum" format="1">
  <advance width="609"/>
  <outline>
    <contour>
      <point x="90" y="234" type="line"/>
      <point x="99" y="204" type="line"/>
      <point x="458" y="204" type="line"/>
      <point x="425" y="2" type="line"/>
      <point x="466" y="2" type="line"/>
      <point x="499" y="204" type="line"/>
      <point x="614" y="213" type="line"/>
      <point x="618" y="241" type="line"/>
      <point x="504" y="241" type="line"/>
      <point x="549" y="525" type="line"/>
      <point x="519" y="525" type="line"/>
      <point x="499" y="466" type="line"/>
      <point x="464" y="241" type="line"/>
      <point x="137" y="241" type="line"/>
      <point x="510" y="733" type="line"/>
      <point x="468" y="733" type="line"/>
    </contour>
  </outline>
</glyph>
<glyph name="guarani.smcp" format="1">
  <advance width="517"/>
  <note>
    GF Latin Plus glyph
  </note>
  <outline>
    <contour>
      <point x="287" y="-80" type="line"/>
      <point x="395" y="605" type="line"/>
      <point x="368" y="605" type="line"/>
      <point x="260" y="-80" type="line"/>
    </contour>
    <contour>
      <point x="94" y="150" type="curve" smooth="yes"/>
      <point x="95" y="40"/>
      <point x="140" y="-4"/>
      <point x="252" y="-4" type="curve" smooth="yes"/>
      <point x="321" y="-4"/>
      <point x="386" y="17"/>
      <point x="438" y="40" type="curve"/>
      <point x="439" y="0" type="line"/>
      <point x="465" y="0" type="line"/>
      <point x="510" y="286" type="line"/>
      <point x="472" y="286" type="line"/>
      <point x="438" y="66" type="line"/>
      <point x="392" y="49"/>
      <point x="324" y="31"/>
      <point x="269" y="31" type="curve" smooth="yes"/>
      <point x="171" y="31"/>
      <point x="133" y="62"/>
      <point x="132" y="159" type="curve" smooth="yes"/>
      <point x="130" y="304"/>
      <point x="185" y="517"/>
      <point x="355" y="517" type="curve" smooth="yes"/>
      <point x="426" y="517"/>
      <point x="506" y="511"/>
      <point x="537" y="506" type="curve"/>
      <point x="542" y="534" type="line"/>
      <point x="490" y="544"/>
      <point x="410" y="552"/>
      <point x="357" y="552" type="curve" smooth="yes"/>
      <point x="160" y="552"/>
      <point x="93" y="320"/>
    </contour>
  </outline>
</glyph>
<glyph name="k.superior" format="1">
  <advance width="383"/>
  <note>
    GF Latin Plus glyph
  </note>
  <outline>
    <contour>
      <point x="100" y="280" type="line"/>
      <point x="136" y="280" type="line"/>
      <point x="168" y="477" type="line"/>
      <point x="188" y="477"/>
      <point x="223" y="480"/>
      <point x="248" y="486" type="curve"/>
      <point x="364" y="280" type="line"/>
      <point x="402" y="280" type="line"/>
      <point x="280" y="498" type="line"/>
      <point x="335" y="520"/>
      <point x="391" y="567"/>
      <point x="422" y="672" type="curve"/>
      <point x="386" y="672" type="line"/>
      <point x="349" y="550"/>
      <point x="271" y="508"/>
      <point x="172" y="506" type="curve"/>
      <point x="226" y="842" type="line"/>
      <point x="190" y="842" type="line"/>
    </contour>
    <contour>
      <point x="221" y="169" type="move" name="bottom"/>
    </contour>
  </outline>
</glyph>
<glyph name="m.salt" format="1">
  <advance width="903"/>
  <outline>
    <contour>
      <point x="86" y="0" type="line"/>
      <point x="127" y="0" type="line"/>
      <point x="200" y="464" type="line"/>
      <point x="284" y="494"/>
      <point x="335" y="504"/>
      <point x="399" y="504" type="curve" smooth="yes"/>
      <point x="470" y="504"/>
      <point x="510" y="454"/>
      <point x="510" y="391" type="curve" smooth="yes"/>
      <point x="510" y="382"/>
      <point x="510" y="374"/>
      <point x="508" y="365" type="curve" smooth="yes"/>
      <point x="450" y="0" type="line"/>
      <point x="491" y="0" type="line"/>
      <point x="549" y="365" type="line" smooth="yes"/>
      <point x="550" y="374"/>
      <point x="551" y="384"/>
      <point x="552" y="394" type="curve" smooth="yes"/>
      <point x="552" y="410"/>
      <point x="549" y="427"/>
      <point x="545" y="438" type="curve"/>
      <point x="595" y="471"/>
      <point x="682" y="504"/>
      <point x="766" y="504" type="curve" smooth="yes"/>
      <point x="836" y="504"/>
      <point x="874" y="454"/>
      <point x="874" y="391" type="curve" smooth="yes"/>
      <point x="874" y="383"/>
      <point x="874" y="374"/>
      <point x="872" y="365" type="curve" smooth="yes"/>
      <point x="814" y="0" type="line"/>
      <point x="855" y="0" type="line"/>
      <point x="914" y="367" type="line" smooth="yes"/>
      <point x="915" y="380"/>
      <point x="916" y="391"/>
      <point x="916" y="403" type="curve" smooth="yes"/>
      <point x="916" y="479"/>
      <point x="873" y="541"/>
      <point x="779" y="541" type="curve" smooth="yes"/>
      <point x="690" y="541"/>
      <point x="599" y="505"/>
      <point x="537" y="465" type="curve"/>
      <point x="511" y="514"/>
      <point x="468" y="541"/>
      <point x="406" y="541" type="curve" smooth="yes"/>
      <point x="319" y="541"/>
      <point x="274" y="528"/>
      <point x="163" y="487" type="curve"/>
    </contour>
    <contour>
      <point x="577" y="650" type="move" name="top"/>
    </contour>
    <contour>
      <point x="448" y="-150" type="move" name="bottom"/>
    </contour>
  </outline>
</glyph>
<glyph name="nine.tnum" format="1">
  <advance width="609"/>
  <outline>
    <contour>
      <point x="569" y="373" type="curve"/>
      <point x="350" y="373" type="line" smooth="yes"/>
      <point x="254" y="373"/>
      <point x="192" y="387"/>
      <point x="192" y="460" type="curve" smooth="yes"/>
      <point x="192" y="468"/>
      <point x="192" y="476"/>
      <point x="194" y="486" type="curve" smooth="yes"/>
      <point x="209" y="582" type="line" smooth="yes"/>
      <point x="224" y="678"/>
      <point x="288" y="699"/>
      <point x="356" y="699" type="curve" smooth="yes"/>
      <point x="465" y="699" type="line" smooth="yes"/>
      <point x="538" y="699"/>
      <point x="584" y="662"/>
      <point x="584" y="530" type="curve" smooth="yes"/>
      <point x="584" y="488"/>
      <point x="579" y="436"/>
    </contour>
    <contour>
      <point x="624" y="531" type="curve" smooth="yes"/>
      <point x="624" y="693"/>
      <point x="563" y="736"/>
      <point x="474" y="736" type="curve" smooth="yes"/>
      <point x="357" y="736" type="line" smooth="yes"/>
      <point x="270" y="736"/>
      <point x="188" y="698"/>
      <point x="169" y="584" type="curve" smooth="yes"/>
      <point x="153" y="482" type="line" smooth="yes"/>
      <point x="151" y="471"/>
      <point x="150" y="460"/>
      <point x="150" y="450" type="curve" smooth="yes"/>
      <point x="150" y="360"/>
      <point x="228" y="336"/>
      <point x="340" y="336" type="curve" smooth="yes"/>
      <point x="389" y="336"/>
      <point x="496" y="339"/>
      <point x="564" y="344" type="curve"/>
      <point x="522" y="133"/>
      <point x="417" y="33"/>
      <point x="294" y="33" type="curve" smooth="yes"/>
      <point x="126" y="33" type="line"/>
      <point x="121" y="3" type="line"/>
      <point x="173" y="0"/>
      <point x="248" y="-4"/>
      <point x="300" y="-4" type="curve" smooth="yes"/>
      <point x="501" y="-4"/>
      <point x="624" y="231"/>
    </contour>
  </outline>
</glyph>
<glyph name="ordmasculine.smcp" format="1">
  <advance width="422"/>
  <outline>
    <contour>
      <point x="328" y="670" type="curve" smooth="yes"/>
      <point x="394" y="670"/>
      <point x="427" y="646"/>
      <point x="427" y="563" type="curve" smooth="yes"/>
      <point x="427" y="444"/>
      <point x="364" y="313"/>
      <point x="241" y="313" type="curve" smooth="yes"/>
      <point x="178" y="313"/>
      <point x="150" y="339"/>
      <point x="150" y="417" type="curve" smooth="yes"/>
      <point x="150" y="539"/>
      <point x="220" y="670"/>
    </contour>
    <contour>
      <point x="116" y="416" type="curve" smooth="yes"/>
      <point x="116" y="313"/>
      <point x="161" y="284"/>
      <point x="238" y="284" type="curve" smooth="yes"/>
      <point x="381" y="284"/>
      <point x="461" y="423"/>
      <point x="461" y="565" type="curve" smooth="yes"/>
      <point x="461" y="668"/>
      <point x="414" y="700"/>
      <point x="330" y="700" type="curve" smooth="yes"/>
      <point x="201" y="700"/>
      <point x="116" y="559"/>
    </contour>
    <contour>
      <point x="58" y="189" type="line"/>
      <point x="423" y="189" type="line"/>
      <point x="428" y="216" type="line"/>
      <point x="63" y="216" type="line"/>
    </contour>
  </outline>
</glyph>
<glyph name="p.salt" format="1">
  <advance width="565"/>
  <outline>
    <contour>
      <point x="128" y="62" type="curve"/>
      <point x="198" y="506" type="line"/>
      <point x="390" y="506" type="line" smooth="yes"/>
      <point x="478" y="506"/>
      <point x="511" y="445"/>
      <point x="511" y="354" type="curve" smooth="yes"/>
      <point x="511" y="193"/>
      <point x="452" y="34"/>
      <point x="315" y="34" type="curve" smooth="yes"/>
      <point x="246" y="34"/>
      <point x="201" y="43"/>
    </contour>
    <contour>
      <point x="35" y="-267" type="line"/>
      <point x="76" y="-267" type="line"/>
      <point x="124" y="32" type="line"/>
      <point x="179" y="8"/>
      <point x="269" y="-4"/>
      <point x="313" y="-4" type="curve" smooth="yes"/>
      <point x="499" y="-4"/>
      <point x="552" y="203"/>
      <point x="552" y="360" type="curve" smooth="yes"/>
      <point x="552" y="478"/>
      <point x="504" y="544"/>
      <point x="398" y="544" type="curve" smooth="yes"/>
      <point x="292" y="544"/>
      <point x="214" y="538"/>
      <point x="160" y="526" type="curve"/>
    </contour>
    <contour>
      <point x="375" y="650" type="move" name="top"/>
    </contour>
  </outline>
</glyph>
<glyph name="ringhalfright" format="1">
  <advance width="194"/>
  <outline>
    <contour>
      <point x="137" y="784" type="line"/>
      <point x="204" y="784"/>
      <point x="237" y="764"/>
      <point x="237" y="710" type="curve" smooth="yes"/>
      <point x="237" y="652"/>
      <point x="200" y="611"/>
      <point x="110" y="611" type="curve"/>
      <point x="106" y="589" type="line"/>
      <point x="215" y="589"/>
      <point x="268" y="645"/>
      <point x="268" y="712" type="curve" smooth="yes"/>
      <point x="268" y="781"/>
      <point x="223" y="806"/>
      <point x="140" y="806" type="curve"/>
    </contour>
  </outline>
</glyph>
<glyph name="s.superior" format="1">
  <advance width="378"/>
  <note>
    GF Latin Plus glyph
  </note>
  <outline>
    <contour>
      <point x="92" y="283" type="line"/>
      <point x="119" y="279"/>
      <point x="212" y="276"/>
      <point x="251" y="276" type="curve" smooth="yes"/>
      <point x="330" y="276"/>
      <point x="383" y="299"/>
      <point x="394" y="362" type="curve" smooth="yes"/>
      <point x="399" y="398" type="line" smooth="yes"/>
      <point x="400" y="405"/>
      <point x="400" y="411"/>
      <point x="400" y="418" type="curve" smooth="yes"/>
      <point x="400" y="466"/>
      <point x="364" y="491"/>
      <point x="312" y="491" type="curve" smooth="yes"/>
      <point x="230" y="491" type="line" smooth="yes"/>
      <point x="181" y="491"/>
      <point x="161" y="500"/>
      <point x="161" y="525" type="curve" smooth="yes"/>
      <point x="161" y="534"/>
      <point x="162" y="550"/>
      <point x="168" y="582" type="curve" smooth="yes"/>
      <point x="177" y="627"/>
      <point x="201" y="647"/>
      <point x="261" y="647" type="curve" smooth="yes"/>
      <point x="412" y="647" type="line"/>
      <point x="416" y="669" type="line"/>
      <point x="381" y="673"/>
      <point x="306" y="676"/>
      <point x="268" y="676" type="curve" smooth="yes"/>
      <point x="179" y="676"/>
      <point x="145" y="640"/>
      <point x="135" y="584" type="curve" smooth="yes"/>
      <point x="129" y="551" type="line" smooth="yes"/>
      <point x="127" y="540"/>
      <point x="126" y="529"/>
      <point x="126" y="520" type="curve" smooth="yes"/>
      <point x="126" y="477"/>
      <point x="159" y="459"/>
      <point x="225" y="459" type="curve" smooth="yes"/>
      <point x="305" y="459" type="line" smooth="yes"/>
      <point x="347" y="459"/>
      <point x="366" y="444"/>
      <point x="366" y="411" type="curve" smooth="yes"/>
      <point x="366" y="406"/>
      <point x="365" y="395"/>
      <point x="360" y="367" type="curve" smooth="yes"/>
      <point x="353" y="320"/>
      <point x="315" y="304"/>
      <point x="258" y="304" type="curve" smooth="yes"/>
      <point x="95" y="304" type="line"/>
    </contour>
    <contour>
      <point x="303" y="758" type="move" name="top"/>
    </contour>
    <contour>
      <point x="210" y="169" type="move" name="bottom"/>
    </contour>
  </outline>
</glyph>
<glyph name="six.smcp" format="1">
  <advance width="534"/>
  <note>
    GF Latin Plus glyph
  </note>
  <outline>
    <contour>
      <point x="160" y="274" type="curve"/>
      <point x="330" y="274" type="line" smooth="yes"/>
      <point x="405" y="274"/>
      <point x="455" y="262"/>
      <point x="455" y="210" type="curve" smooth="yes"/>
      <point x="455" y="202"/>
      <point x="452" y="169"/>
      <point x="443" y="119" type="curve" smooth="yes"/>
      <point x="430" y="49"/>
      <point x="382" y="33"/>
      <point x="328" y="33" type="curve" smooth="yes"/>
      <point x="243" y="33" type="line" smooth="yes"/>
      <point x="187" y="33"/>
      <point x="151" y="61"/>
      <point x="150" y="158" type="curve" smooth="yes"/>
      <point x="150" y="188"/>
      <point x="154" y="227"/>
    </contour>
    <contour>
      <point x="111" y="156" type="curve" smooth="yes"/>
      <point x="112" y="32"/>
      <point x="162" y="-1"/>
      <point x="235" y="-1" type="curve" smooth="yes"/>
      <point x="329" y="-1" type="line" smooth="yes"/>
      <point x="401" y="-1"/>
      <point x="468" y="29"/>
      <point x="481" y="116" type="curve" smooth="yes"/>
      <point x="493" y="192" type="line" smooth="yes"/>
      <point x="495" y="204"/>
      <point x="496" y="212"/>
      <point x="496" y="220" type="curve" smooth="yes"/>
      <point x="496" y="287"/>
      <point x="435" y="307"/>
      <point x="342" y="307" type="curve" smooth="yes"/>
      <point x="302" y="307"/>
      <point x="219" y="305"/>
      <point x="165" y="301" type="curve"/>
      <point x="190" y="456"/>
      <point x="272" y="530"/>
      <point x="361" y="530" type="curve" smooth="yes"/>
      <point x="511" y="530" type="line"/>
      <point x="516" y="559" type="line"/>
      <point x="474" y="561"/>
      <point x="414" y="565"/>
      <point x="370" y="565" type="curve" smooth="yes"/>
      <point x="181" y="565"/>
      <point x="109" y="364"/>
    </contour>
  </outline>
</glyph>
<glyph name="t.salt" format="1">
  <advance width="324"/>
  <outline>
    <contour>
      <point x="98" y="190" type="line" smooth="yes"/>
      <point x="94" y="164"/>
      <point x="91" y="141"/>
      <point x="91" y="112" type="curve" smooth="yes"/>
      <point x="91" y="42"/>
      <point x="128" y="0"/>
      <point x="202" y="0" type="curve" smooth="yes"/>
      <point x="282" y="0" type="line"/>
      <point x="287" y="29" type="line"/>
      <point x="206" y="37" type="line" smooth="yes"/>
      <point x="151" y="42"/>
      <point x="133" y="70"/>
      <point x="133" y="129" type="curve" smooth="yes"/>
      <point x="133" y="146"/>
      <point x="135" y="166"/>
      <point x="139" y="190" type="curve" smooth="yes"/>
      <point x="187" y="495" type="line"/>
      <point x="340" y="495" type="line"/>
      <point x="346" y="532" type="line"/>
      <point x="193" y="532" type="line"/>
      <point x="217" y="681" type="line"/>
      <point x="178" y="681" type="line"/>
      <point x="150" y="516" type="line"/>
    </contour>
    <contour>
      <point x="250" y="668" type="move" name="altcaron"/>
    </contour>
    <contour>
      <point x="210" y="750" type="move" name="top"/>
    </contour>
    <contour>
      <point x="163" y="-150" type="move" name="bottom"/>
    </contour>
  </outline>
</glyph>
<glyph name="t.superior" format="1">
  <advance width="281"/>
  <note>
    GF Latin Plus glyph
  </note>
  <outline>
    <contour>
      <point x="128" y="641" type="line"/>
      <point x="192" y="641" type="line"/>
      <point x="156" y="423" type="line" smooth="yes"/>
      <point x="153" y="403"/>
      <point x="149" y="382"/>
      <point x="149" y="361" type="curve" smooth="yes"/>
      <point x="149" y="309"/>
      <point x="180" y="280"/>
      <point x="241" y="280" type="curve" smooth="yes"/>
      <point x="287" y="280" type="line"/>
      <point x="291" y="306" type="line"/>
      <point x="242" y="310" type="line" smooth="yes"/>
      <point x="203" y="314"/>
      <point x="185" y="332"/>
      <point x="185" y="368" type="curve" smooth="yes"/>
      <point x="185" y="385"/>
      <point x="189" y="405"/>
      <point x="192" y="423" type="curve" smooth="yes"/>
      <point x="226" y="641" type="line"/>
      <point x="351" y="641" type="line"/>
      <point x="354" y="672" type="line"/>
      <point x="230" y="672" type="line"/>
      <point x="248" y="782" type="line"/>
      <point x="222" y="782" type="line"/>
      <point x="197" y="672" type="line"/>
      <point x="132" y="665" type="line"/>
    </contour>
    <contour>
      <point x="264" y="771" type="move" name="altcaron"/>
    </contour>
    <contour>
      <point x="207" y="169" type="move" name="bottom"/>
    </contour>
  </outline>
</glyph>
<glyph name="two.oldstyle" format="1">
  <advance width="571"/>
  <outline>
    <contour>
      <point x="197" y="501" type="line"/>
      <point x="382" y="501" type="line" smooth="yes"/>
      <point x="473" y="501"/>
      <point x="512" y="472"/>
      <point x="512" y="418" type="curve" smooth="yes"/>
      <point x="512" y="372"/>
      <point x="468" y="293"/>
      <point x="295" y="170" type="curve" smooth="yes"/>
      <point x="102" y="34" type="line"/>
      <point x="96" y="0" type="line"/>
      <point x="509" y="0" type="line"/>
      <point x="514" y="37" type="line"/>
      <point x="162" y="37" type="line"/>
      <point x="332" y="157" type="line" smooth="yes"/>
      <point x="503" y="277"/>
      <point x="554" y="370"/>
      <point x="554" y="429" type="curve" smooth="yes"/>
      <point x="554" y="497"/>
      <point x="507" y="538"/>
      <point x="393" y="538" type="curve" smooth="yes"/>
      <point x="317" y="538"/>
      <point x="242" y="534"/>
      <point x="201" y="530" type="curve"/>
    </contour>
  </outline>
</glyph>
<glyph name="two.smcp" format="1">
  <advance width="506"/>
  <note>
    GF Latin Plus glyph
  </note>
  <outline>
    <contour>
      <point x="167" y="530" type="line"/>
      <point x="325" y="530" type="line" smooth="yes"/>
      <point x="427" y="530"/>
      <point x="455" y="495"/>
      <point x="456" y="447" type="curve" smooth="yes"/>
      <point x="456" y="392"/>
      <point x="415" y="321"/>
      <point x="312" y="236" type="curve" smooth="yes"/>
      <point x="64" y="32" type="line"/>
      <point x="59" y="0" type="line"/>
      <point x="451" y="0" type="line"/>
      <point x="458" y="35" type="line"/>
      <point x="122" y="35" type="line"/>
      <point x="340" y="217" type="line" smooth="yes"/>
      <point x="449" y="309"/>
      <point x="496" y="389"/>
      <point x="496" y="454" type="curve" smooth="yes"/>
      <point x="495" y="518"/>
      <point x="455" y="565"/>
      <point x="338" y="565" type="curve" smooth="yes"/>
      <point x="280" y="565"/>
      <point x="219" y="560"/>
      <point x="172" y="557" type="curve"/>
    </contour>
  </outline>
</glyph>
<glyph name="zero.zero.smcp" format="1">
  <advance width="557"/>
  <note>
    GF Latin Plus glyph
  </note>
  <outline>
    <contour>
      <point x="478" y="533" type="line"/>
      <point x="141" y="34" type="line"/>
      <point x="170" y="34" type="line"/>
      <point x="506" y="533" type="line"/>
    </contour>
    <component base="zero.smcp"/>
  </outline>
</glyph>
